<?xml version="1.0" standalone="no"?>
<!DOCTYPE svg PUBLIC "-//W3C//DTD SVG 20010904//EN"
 "http://www.w3.org/TR/2001/REC-SVG-20010904/DTD/svg10.dtd">
<svg version="1.0" xmlns="http://www.w3.org/2000/svg"
 width="500.000000pt" height="500.000000pt" viewBox="0 0 500.000000 500.000000"
 preserveAspectRatio="xMidYMid meet">
<metadata>
Created by potrace 1.14, written by Peter Selinger 2001-2017
</metadata>
<g transform="translate(0.000000,500.000000) scale(0.100000,-0.100000)"
fill="#000000" stroke="none">
<path d="M2250 4949 c-61 -8 -209 -32 -273 -44 -89 -17 -274 -75 -398 -125
-348 -139 -686 -378 -927 -656 -23 -27 -51 -58 -60 -69 -10 -11 -31 -38 -48
-60 -16 -22 -31 -42 -34 -45 -3 -3 -9 -12 -15 -22 -5 -9 -31 -47 -56 -85 -25
-37 -49 -75 -52 -83 -4 -8 -17 -31 -28 -50 -35 -57 -115 -221 -134 -275 -10
-27 -22 -54 -26 -60 -7 -10 -65 -191 -74 -231 -2 -10 -13 -55 -24 -99 -10 -44
-22 -102 -26 -129 -3 -27 -8 -52 -10 -56 -10 -16 -20 -201 -20 -360 0 -156 7
-264 19 -340 3 -14 7 -41 10 -60 9 -54 16 -88 32 -154 8 -34 17 -70 19 -81 14
-62 104 -317 128 -359 6 -12 12 -23 12 -26 3 -16 93 -186 130 -248 42 -68 133
-201 145 -212 3 -3 16 -19 28 -36 27 -39 63 -81 129 -152 29 -31 53 -60 53
-66 0 -5 2 -7 5 -4 3 2 33 -23 68 -56 35 -34 82 -77 106 -96 23 -19 51 -42 61
-51 11 -9 16 -19 13 -23 -4 -4 0 -4 10 0 11 4 19 0 23 -10 3 -9 12 -16 18 -16
7 0 22 -9 34 -20 12 -11 24 -20 27 -20 3 0 18 -11 32 -24 15 -14 30 -23 35
-20 4 3 8 0 8 -5 0 -6 5 -11 11 -11 16 0 39 -26 31 -36 -4 -5 1 -2 11 5 11 9
17 10 17 2 0 -6 26 -24 58 -39 32 -17 56 -35 54 -42 -3 -11 0 -11 12 0 15 11
20 7 17 -13 -1 -5 3 -6 8 -3 12 8 62 -14 56 -24 -2 -4 6 -6 20 -5 16 2 22 -1
18 -10 -3 -10 2 -13 21 -9 21 3 24 1 19 -13 -6 -16 -5 -16 10 -4 12 9 17 10
17 2 0 -7 5 -9 10 -6 6 3 13 -1 16 -9 3 -9 10 -16 16 -16 5 0 6 6 2 13 -4 6 5
1 20 -13 24 -22 26 -22 21 -5 -6 20 -6 20 7 0 9 -13 24 -20 46 -20 19 1 36 -4
39 -9 4 -5 1 -6 -7 -1 -8 5 -11 4 -6 -3 4 -6 13 -9 21 -5 8 3 15 1 15 -5 0 -5
7 -13 16 -16 15 -6 15 -4 3 10 -13 16 -12 16 8 6 12 -7 26 -20 31 -28 6 -11
11 -13 16 -5 4 6 2 11 -3 11 -6 0 -11 5 -11 12 0 6 8 3 20 -7 11 -10 28 -15
39 -12 15 4 18 1 13 -12 -5 -14 -4 -14 11 -2 11 9 17 10 17 2 0 -6 7 -11 16
-11 8 0 12 5 9 11 -4 6 2 5 14 -3 12 -7 21 -16 21 -19 0 -4 7 -9 14 -12 11 -4
13 -1 9 11 -5 14 -3 15 8 5 7 -7 23 -13 36 -13 13 0 22 -3 20 -7 -1 -5 3 -9 8
-10 6 -2 10 1 10 6 0 5 4 13 8 18 5 4 8 3 7 -2 -5 -21 1 -27 14 -16 11 9 16 9
22 0 4 -8 3 -9 -4 -5 -18 11 -14 0 5 -15 9 -8 14 -9 10 -3 -4 7 2 14 13 17 12
3 24 -1 30 -11 8 -15 9 -15 10 3 0 16 2 17 9 5 6 -8 7 -18 4 -24 -3 -5 -1 -6
6 -2 6 4 9 11 6 16 -3 5 0 12 6 16 7 4 9 3 5 -4 -8 -13 7 -23 40 -27 17 -2 24
2 20 11 -3 8 0 11 9 7 8 -3 13 -9 10 -13 -3 -5 0 -12 6 -16 8 -4 9 -3 5 4 -5
8 3 12 23 12 18 0 31 -5 32 -12 0 -7 4 -4 9 7 7 17 9 18 9 2 1 -14 4 -15 20
-5 11 7 17 16 14 22 -4 5 -1 6 7 1 10 -6 10 -10 -3 -20 -13 -9 -6 -11 37 -11
30 1 52 4 49 8 -2 5 1 8 6 8 6 0 11 -3 11 -8 0 -4 14 -7 30 -7 23 -1 29 3 25
13 -4 12 -3 13 10 2 8 -7 15 -9 15 -4 0 5 7 1 14 -9 12 -16 14 -16 20 -2 3 9
2 14 -2 11 -5 -3 -9 1 -9 8 0 11 8 9 33 -5 24 -13 32 -14 28 -5 -3 8 0 17 7
22 7 4 10 3 6 -2 -3 -6 7 -15 22 -21 21 -8 28 -7 28 3 0 7 -5 10 -10 7 -6 -3
-7 -1 -3 6 5 8 13 7 28 -3 20 -14 52 -11 43 4 -9 14 26 4 37 -11 8 -11 9 -11
4 3 -6 21 5 23 23 5 10 -10 11 -8 5 7 -6 16 -5 17 16 6 15 -8 20 -8 16 -1 -4
6 -4 11 1 12 4 0 16 2 25 4 10 2 23 -4 29 -13 8 -13 9 -13 6 -2 -7 22 16 40
30 24 7 -6 11 -14 10 -16 -1 -2 4 4 11 12 7 8 20 14 29 12 8 -2 13 0 10 5 -5
7 11 8 56 4 5 -1 5 -6 1 -13 -4 -7 -3 -8 5 -4 9 6 9 11 1 21 -9 11 -7 12 11 8
17 -5 20 -3 14 8 -6 11 -5 12 6 2 16 -16 33 -17 23 -2 -4 7 1 7 16 -1 19 -10
21 -10 12 7 -9 17 -7 18 25 15 23 -3 33 -1 29 6 -3 6 1 9 11 8 10 -2 21 2 25
8 5 8 8 7 8 -1 0 -7 5 -13 11 -13 5 0 8 4 4 9 -3 5 -1 12 5 16 5 3 10 1 10 -5
0 -6 5 -8 10 -5 6 4 8 11 5 16 -4 5 -1 10 4 10 6 1 17 2 24 3 6 1 18 -2 25 -7
9 -7 11 -5 6 8 -6 15 -5 16 17 5 23 -13 23 -12 9 5 -13 16 -13 18 0 13 20 -7
52 10 44 24 -4 7 -3 8 5 4 6 -4 9 -12 6 -17 -4 -5 -1 -9 4 -9 6 0 11 6 11 14
0 9 7 12 23 9 18 -4 19 -3 7 6 -12 9 -10 11 13 11 17 0 26 4 22 10 -4 7 3 9
20 6 23 -4 25 -3 14 10 -10 12 -10 15 2 12 8 -2 17 -7 21 -13 4 -6 8 -2 8 8 0
9 7 17 16 17 8 0 13 4 10 9 -7 11 13 9 34 -3 8 -5 12 -6 8 -1 -15 16 11 43 41
41 25 -2 28 1 20 15 -7 14 -5 16 13 11 13 -3 19 -1 15 5 -5 7 1 9 15 6 19 -4
20 -3 8 7 -13 10 -11 11 7 7 17 -4 20 -1 15 12 -5 14 -4 14 14 1 10 -8 16 -11
12 -6 -3 4 2 16 13 27 21 21 34 25 23 7 -5 -7 -3 -8 5 -4 7 5 10 14 7 21 -4
12 20 30 37 27 4 -1 7 3 7 8 0 6 5 10 11 10 5 0 7 -5 3 -12 -5 -7 -3 -8 5 -4
7 5 10 15 6 23 -4 13 -3 14 10 3 13 -11 14 -10 9 5 -6 14 -4 16 6 10 10 -6 12
-4 7 8 -3 10 -2 17 3 17 6 0 10 -4 10 -10 0 -5 5 -10 12 -10 6 0 8 3 5 7 -4 3
1 12 11 20 9 8 11 11 3 7 -9 -5 -12 -3 -7 4 5 9 13 9 29 0 19 -9 20 -9 11 3
-9 11 -9 17 1 26 11 10 15 10 18 0 3 -7 6 -4 6 6 1 11 6 15 13 11 6 -4 8 -3 5
3 -8 13 17 36 28 25 5 -4 5 1 2 11 -4 10 -3 16 2 12 15 -9 43 7 37 21 -3 7 0
16 6 20 7 5 8 2 3 -6 -5 -9 -4 -11 3 -6 7 4 12 13 12 21 0 8 5 17 12 21 6 4 8
3 5 -3 -3 -5 0 -10 8 -10 10 0 11 5 5 17 -6 12 -5 17 5 17 8 0 11 -5 8 -10 -3
-6 -1 -7 5 -3 7 4 12 14 12 22 0 8 5 14 10 14 6 0 10 7 10 16 0 8 5 12 10 9 6
-3 10 2 10 12 0 15 2 16 10 3 8 -13 10 -13 11 3 1 9 2 23 3 30 1 6 11 11 23
11 13 -1 20 2 18 6 -3 4 2 13 10 20 8 7 12 16 9 21 -3 5 2 12 10 15 9 3 16 12
16 19 0 7 9 15 20 18 13 3 18 10 14 21 -4 10 0 18 10 22 9 3 13 10 10 15 -3 5
2 9 10 9 9 0 16 5 16 11 0 5 -5 7 -12 3 -7 -4 -8 -3 -4 4 4 6 13 9 21 5 11 -4
13 -1 9 11 -4 10 0 18 10 22 9 3 13 11 9 17 -4 6 0 8 10 4 9 -3 16 -3 16 1 -3
23 15 53 30 48 13 -5 13 -4 -1 7 -10 8 -15 17 -11 20 3 4 13 1 21 -6 13 -10
14 -9 8 1 -4 7 -2 19 4 27 6 8 8 20 4 27 -5 8 -1 8 11 -2 17 -14 18 -14 6 7
-10 20 -9 23 5 23 14 0 15 2 3 17 -10 11 -10 14 -1 9 6 -4 13 -2 13 3 1 6 2
16 3 23 0 6 8 13 16 15 13 4 13 3 0 -6 -9 -7 -10 -11 -3 -11 17 0 25 17 13 25
-8 5 -6 13 4 24 9 10 13 21 9 26 -5 4 -1 6 9 2 11 -4 15 -1 13 11 -3 21 13 54
24 48 4 -3 8 1 8 9 0 8 -4 12 -9 9 -4 -3 -5 2 -2 11 4 9 13 14 20 11 10 -4 11
1 4 19 -7 18 -5 27 8 37 15 12 16 11 4 -4 -10 -12 -10 -18 -1 -24 8 -4 9 -3 5
5 -4 6 0 14 8 17 14 5 14 8 1 21 -8 8 -15 20 -15 26 0 7 4 6 10 -3 8 -13 11
-13 22 -1 8 9 9 12 1 7 -7 -4 -11 1 -10 13 1 14 5 17 13 10 8 -7 10 -2 6 17
-3 16 -1 25 5 21 6 -4 9 9 9 33 -1 21 2 36 6 34 5 -3 13 -2 20 2 7 5 5 11 -7
21 -18 12 -18 13 -1 13 15 0 16 3 6 15 -11 13 -10 14 3 9 12 -4 15 0 13 20 -2
14 1 26 5 26 5 0 9 5 9 11 0 5 -5 7 -12 3 -7 -5 -8 -3 -4 5 5 7 14 10 22 7 8
-3 11 0 7 9 -3 8 -10 12 -17 8 -6 -4 -5 1 2 10 8 9 10 22 6 28 -5 9 -2 10 10
6 12 -5 15 -3 9 6 -13 20 -12 39 1 34 7 -3 13 1 13 9 0 7 -4 11 -8 8 -4 -2 -7
4 -6 15 0 10 6 17 12 14 7 -2 12 3 12 11 0 8 -4 13 -8 11 -4 -3 -9 2 -12 10
-4 10 -1 12 10 8 12 -5 14 -1 8 17 -4 13 -3 20 2 17 5 -3 7 7 5 24 -3 18 0 29
8 29 7 0 4 7 -7 18 -10 9 -14 14 -8 10 12 -8 25 -1 25 14 0 5 -4 7 -9 4 -10
-7 -8 9 4 37 4 10 2 23 -5 32 -11 13 -10 14 2 10 16 -6 18 20 4 43 -4 6 -4 12
1 12 4 0 7 35 7 77 -1 43 -3 78 -4 78 -1 0 -3 8 -5 18 -2 9 1 15 5 12 11 -7 7
45 -4 64 -6 10 -5 12 2 7 15 -9 15 -1 1 26 -8 15 -8 19 0 14 6 -4 11 0 11 9 0
9 -4 13 -10 10 -5 -3 -10 -1 -10 4 0 6 5 11 11 11 8 0 7 6 -2 17 -8 9 -9 14
-3 11 11 -7 11 35 -1 72 -5 15 -4 20 4 16 5 -4 4 6 -4 21 -11 21 -12 29 -2 35
9 6 9 8 0 8 -8 0 -13 13 -13 30 0 17 5 30 10 30 6 0 10 5 10 12 0 9 -3 9 -12
0 -16 -16 -25 -15 -25 3 0 8 4 12 9 9 4 -3 8 0 8 5 0 6 -5 11 -12 11 -6 0 -8
3 -5 6 3 4 2 16 -4 27 -7 12 -7 17 -1 13 5 -3 12 0 15 8 6 16 -1 26 -17 26 -6
0 -4 -5 4 -10 13 -8 12 -10 -2 -10 -21 0 -21 1 -8 35 9 24 8 26 -6 21 -13 -5
-14 -3 -6 7 7 8 7 18 2 27 -5 8 -6 18 -4 22 3 4 -1 8 -8 8 -9 0 -9 3 2 10 13
8 12 10 -4 10 -13 0 -16 5 -12 17 4 9 1 21 -6 26 -9 6 -8 7 4 3 10 -3 20 -1
23 5 4 5 3 9 -2 8 -22 -4 -33 3 -33 20 0 11 6 22 13 25 6 3 0 3 -15 1 -20 -2
-25 0 -21 11 3 8 8 12 12 9 4 -2 8 3 8 11 0 8 -6 13 -13 10 -8 -3 -11 0 -7 10
3 9 -3 21 -16 31 -20 14 -21 17 -7 38 14 22 14 23 -7 17 -20 -5 -21 -4 -8 12
8 9 10 16 5 15 -21 -4 -24 2 -13 22 8 15 8 19 0 15 -6 -4 -11 -2 -11 4 0 6 -6
8 -12 4 -7 -4 -10 -4 -6 1 4 4 3 17 -3 29 -10 20 -10 20 5 2 9 -11 16 -15 16
-8 0 6 -10 18 -22 26 -12 9 -19 16 -15 16 4 0 0 12 -9 28 -14 24 -14 25 0 8 9
-11 16 -15 16 -8 0 6 -8 17 -17 24 -23 17 -62 64 -45 54 6 -4 12 -2 12 3 0 6
-6 11 -12 11 -9 0 -8 4 2 10 13 8 12 10 -4 10 -12 0 -16 5 -13 15 4 8 2 17 -4
20 -5 4 -6 11 -3 17 4 7 2 8 -5 4 -9 -6 -9 -12 1 -24 10 -15 10 -15 -2 -4 -15
13 -16 17 -19 48 0 8 -6 12 -12 8 -8 -4 -9 0 -4 15 5 16 3 20 -8 15 -8 -3 -17
2 -20 10 -4 11 -1 13 11 9 14 -6 15 -5 2 9 -8 9 -19 13 -24 10 -5 -3 -7 7 -4
21 3 14 2 26 -1 25 -3 0 -15 0 -26 1 -17 1 -18 3 -5 11 13 9 8 14 -12 11 -4 0
-5 8 -3 19 2 10 -4 25 -13 32 -13 11 -14 11 -7 -1 6 -10 4 -12 -4 -7 -7 5 -10
15 -7 23 3 8 2 11 -3 8 -5 -3 -12 -1 -16 5 -3 5 0 10 7 11 7 0 2 5 -11 10 -16
6 -21 14 -17 25 6 15 4 15 -11 3 -11 -9 -14 -10 -9 -1 4 7 2 12 -5 12 -9 0 -9
4 1 15 10 12 8 14 -9 10 -24 -4 -27 5 -8 24 6 8 7 11 1 8 -5 -3 -23 3 -40 14
-16 10 -23 19 -16 19 10 0 10 3 -2 15 -8 8 -20 15 -26 15 -6 0 -9 3 -7 8 7 10
-19 32 -29 24 -5 -4 -2 2 6 12 10 13 10 17 3 12 -8 -4 -13 -2 -13 5 0 7 -3 9
-6 6 -8 -7 -44 31 -44 45 0 5 -5 6 -10 3 -6 -3 -14 4 -19 17 -6 13 -10 19 -10
14 -1 -4 -23 15 -51 43 -27 28 -52 51 -56 51 -12 0 -33 28 -26 35 4 5 2 5 -4
2 -14 -8 -57 27 -47 37 4 4 -1 4 -12 0 -15 -6 -17 -4 -12 10 4 9 3 15 -2 11
-5 -3 -16 2 -24 10 -9 8 -20 15 -26 15 -6 0 -11 5 -11 11 0 5 -4 7 -10 4 -5
-3 -10 1 -10 10 0 9 -4 14 -9 10 -5 -3 -16 3 -23 12 -7 10 -19 19 -27 21 -7 1
-28 14 -46 27 -17 14 -36 25 -40 25 -5 0 -16 6 -24 14 -9 7 -41 26 -71 42 -30
15 -63 35 -72 43 -10 8 -18 11 -18 8 0 -3 -36 12 -80 34 -44 21 -83 39 -88 39
-5 0 -26 9 -49 20 -39 18 -253 87 -302 96 -14 3 -27 7 -31 9 -7 4 -181 35
-230 41 -19 2 -46 6 -60 10 -40 10 -459 12 -530 3z m2170 -4055 c0 -8 -19 -13
-24 -6 -3 5 1 9 9 9 8 0 15 -2 15 -3z"/>
<path d="M4735 3580 c3 -5 8 -10 11 -10 2 0 4 5 4 10 0 6 -5 10 -11 10 -5 0
-7 -4 -4 -10z"/>
<path d="M4845 3321 c-6 -11 13 -26 22 -17 4 3 1 6 -6 6 -7 0 -9 5 -6 10 3 6
4 10 1 10 -3 0 -7 -4 -11 -9z"/>
<path d="M4725 1350 c-3 -6 1 -7 9 -4 18 7 21 14 7 14 -6 0 -13 -4 -16 -10z"/>
<path d="M3955 469 c-4 -6 -4 -13 -1 -16 3 -4 6 -1 6 6 0 7 5 9 12 5 7 -4 8
-3 4 4 -9 15 -13 15 -21 1z"/>
<path d="M1956 82 c-3 -5 1 -9 9 -9 8 0 12 4 9 9 -3 4 -7 8 -9 8 -2 0 -6 -4
-9 -8z"/>
<path d="M2953 45 c0 -8 4 -12 9 -9 5 3 6 10 3 15 -9 13 -12 11 -12 -6z"/>
</g>
</svg>
